<svg width="177" height="62" viewBox="0 0 177 62" fill="none" xmlns="http://www.w3.org/2000/svg">
<path d="M38.1919 25.3847C38.0023 25.53 34.6538 27.3935 34.6538 31.5371C34.6538 36.3298 38.9146 38.0253 39.0421 38.0673C39.0225 38.1706 38.3652 40.3894 36.7956 42.6501C35.3961 44.6395 33.9344 46.6257 31.7109 46.6257C29.4873 46.6257 28.915 45.35 26.3481 45.35C23.8466 45.35 22.9572 46.6677 20.9233 46.6677C18.8894 46.6677 17.4702 44.8268 15.8385 42.5661C13.9485 39.9114 12.4214 35.7872 12.4214 31.8729C12.4214 25.5946 16.5546 22.2649 20.6224 22.2649C22.7839 22.2649 24.5856 23.6666 25.9427 23.6666C27.2343 23.6666 29.2486 22.181 31.7076 22.181C32.6395 22.181 35.988 22.2649 38.1919 25.3847ZM30.5402 19.523C31.5572 18.3313 32.2766 16.6778 32.2766 15.0242C32.2766 14.7949 32.2569 14.5624 32.2144 14.3751C30.5598 14.4364 28.5913 15.4634 27.4043 16.8231C26.4724 17.8695 25.6026 19.523 25.6026 21.1992C25.6026 21.4511 25.6451 21.703 25.6647 21.7837C25.7694 21.8031 25.9394 21.8257 26.1094 21.8257C27.594 21.8257 29.4611 20.8439 30.5402 19.523Z" fill="white"/>
<path d="M49.2276 20.8725C49.1417 20.8725 49.0688 20.8425 49.0087 20.7824C48.9487 20.7223 48.9186 20.6494 48.9186 20.5636V12.1835C48.9186 12.0891 48.9487 12.0118 49.0087 11.9518C49.0688 11.8917 49.1417 11.8617 49.2276 11.8617H52.3685C53.2352 11.8617 53.9475 11.9947 54.5053 12.2607C55.0717 12.5268 55.4965 12.9215 55.7797 13.445C56.0715 13.9685 56.2217 14.6078 56.2303 15.363C56.2474 15.7406 56.256 16.0753 56.256 16.3671C56.256 16.6589 56.2474 16.9893 56.2303 17.3583C56.2131 18.1564 56.0672 18.8172 55.7926 19.3407C55.518 19.8556 55.1018 20.2417 54.5439 20.4992C53.9947 20.7481 53.291 20.8725 52.4328 20.8725H49.2276ZM50.7079 19.3921H52.3685C52.8491 19.3921 53.2395 19.3235 53.5399 19.1862C53.8402 19.0489 54.0591 18.83 54.1964 18.5297C54.3423 18.2207 54.4195 17.8174 54.4281 17.3197C54.4367 17.0622 54.441 16.8391 54.441 16.6503C54.4495 16.4529 54.4495 16.2598 54.441 16.071C54.441 15.8736 54.4367 15.6505 54.4281 15.4016C54.4109 14.6979 54.235 14.1787 53.9003 13.844C53.5656 13.5094 53.0336 13.342 52.3041 13.342H50.7079V19.3921ZM60.7759 21.0012C60.0894 21.0012 59.5101 20.8811 59.0381 20.6408C58.5747 20.4005 58.2185 20.0615 57.9697 19.6239C57.7294 19.1862 57.5921 18.6756 57.5577 18.092C57.5492 17.9375 57.5449 17.7487 57.5449 17.5256C57.5449 17.3025 57.5492 17.1137 57.5577 16.9592C57.5921 16.3671 57.7337 15.8565 57.9825 15.4274C58.24 14.9897 58.6004 14.6507 59.0638 14.4104C59.5358 14.1702 60.1065 14.05 60.7759 14.05C61.4453 14.05 62.0117 14.1702 62.4751 14.4104C62.9471 14.6507 63.3075 14.9897 63.5564 15.4274C63.8138 15.8565 63.9597 16.3671 63.9941 16.9592C64.0026 17.1137 64.0069 17.3025 64.0069 17.5256C64.0069 17.7487 64.0026 17.9375 63.9941 18.092C63.9597 18.6756 63.8181 19.1862 63.5693 19.6239C63.329 20.0615 62.9728 20.4005 62.5008 20.6408C62.0374 20.8811 61.4624 21.0012 60.7759 21.0012ZM60.7759 19.7268C61.2307 19.7268 61.5826 19.5852 61.8315 19.302C62.0803 19.0103 62.2176 18.5855 62.2434 18.0276C62.252 17.8989 62.2563 17.7316 62.2563 17.5256C62.2563 17.3197 62.252 17.1523 62.2434 17.0236C62.2176 16.4744 62.0803 16.0538 61.8315 15.7621C61.5826 15.4703 61.2307 15.3244 60.7759 15.3244C60.3211 15.3244 59.9692 15.4703 59.7203 15.7621C59.4715 16.0538 59.3342 16.4744 59.3084 17.0236C59.2998 17.1523 59.2956 17.3197 59.2956 17.5256C59.2956 17.7316 59.2998 17.8989 59.3084 18.0276C59.3342 18.5855 59.4715 19.0103 59.7203 19.302C59.9692 19.5852 60.3211 19.7268 60.7759 19.7268ZM67.0725 20.8725C66.9524 20.8725 66.8623 20.8425 66.8022 20.7824C66.7421 20.7223 66.6906 20.6451 66.6477 20.5507L64.8069 14.5778C64.7984 14.5349 64.7941 14.4963 64.7941 14.4619C64.7941 14.3847 64.8198 14.3203 64.8713 14.2688C64.9314 14.2088 64.9957 14.1787 65.0644 14.1787H66.017C66.1199 14.1787 66.2015 14.2088 66.2615 14.2688C66.3216 14.3203 66.3559 14.3718 66.3645 14.4233L67.626 18.6842L68.9648 14.4619C68.982 14.4019 69.0206 14.3418 69.0806 14.2817C69.1407 14.2131 69.2308 14.1787 69.351 14.1787H69.9946C70.1147 14.1787 70.2049 14.2131 70.2649 14.2817C70.325 14.3418 70.3636 14.4019 70.3808 14.4619L71.7195 18.6842L72.9811 14.4233C72.9896 14.3718 73.0197 14.3203 73.0712 14.2688C73.1312 14.2088 73.2128 14.1787 73.3157 14.1787H74.2683C74.3455 14.1787 74.4099 14.2088 74.4614 14.2688C74.5215 14.3203 74.5515 14.3847 74.5515 14.4619C74.5515 14.4963 74.5429 14.5349 74.5258 14.5778L72.685 20.5507C72.6592 20.6451 72.612 20.7223 72.5434 20.7824C72.4833 20.8425 72.3932 20.8725 72.2731 20.8725H71.4363C71.3162 20.8725 71.2218 20.8425 71.1531 20.7824C71.0845 20.7223 71.0373 20.6451 71.0115 20.5507L69.6728 16.4829L68.334 20.5507C68.2997 20.6451 68.2482 20.7223 68.1796 20.7824C68.1195 20.8425 68.0251 20.8725 67.8964 20.8725H67.0725ZM76.1131 20.8725C76.0273 20.8725 75.9544 20.8425 75.8943 20.7824C75.8342 20.7223 75.8042 20.6494 75.8042 20.5636V14.4877C75.8042 14.4019 75.8342 14.3289 75.8943 14.2688C75.9544 14.2088 76.0273 14.1787 76.1131 14.1787H77.1687C77.2545 14.1787 77.3274 14.2088 77.3875 14.2688C77.4476 14.3289 77.4776 14.4019 77.4776 14.4877V15.0155C77.7007 14.7408 77.9839 14.5134 78.3272 14.3332C78.6791 14.1444 79.1124 14.05 79.6273 14.05C80.1508 14.05 80.6057 14.1702 80.9918 14.4104C81.378 14.6422 81.6741 14.9725 81.8801 15.4016C82.0946 15.8307 82.2019 16.3456 82.2019 16.9463V20.5636C82.2019 20.6494 82.1718 20.7223 82.1118 20.7824C82.0517 20.8425 81.9787 20.8725 81.8929 20.8725H80.7601C80.6743 20.8725 80.6014 20.8425 80.5413 20.7824C80.4812 20.7223 80.4512 20.6494 80.4512 20.5636V17.0236C80.4512 16.5258 80.3268 16.1354 80.0779 15.8522C79.8376 15.569 79.4857 15.4274 79.0223 15.4274C78.5761 15.4274 78.2199 15.569 77.9539 15.8522C77.6879 16.1354 77.5549 16.5258 77.5549 17.0236V20.5636C77.5549 20.6494 77.5248 20.7223 77.4647 20.7824C77.4047 20.8425 77.3317 20.8725 77.2459 20.8725H76.1131ZM84.1588 20.8725C84.073 20.8725 84 20.8425 83.94 20.7824C83.8799 20.7223 83.8499 20.6494 83.8499 20.5636V12.0419C83.8499 11.9561 83.8799 11.8831 83.94 11.823C84 11.763 84.073 11.7329 84.1588 11.7329H85.2272C85.313 11.7329 85.386 11.763 85.4461 11.823C85.5061 11.8831 85.5362 11.9561 85.5362 12.0419V20.5636C85.5362 20.6494 85.5061 20.7223 85.4461 20.7824C85.386 20.8425 85.313 20.8725 85.2272 20.8725H84.1588ZM90.2044 21.0012C89.5179 21.0012 88.9386 20.8811 88.4666 20.6408C88.0032 20.4005 87.6471 20.0615 87.3982 19.6239C87.1579 19.1862 87.0206 18.6756 86.9863 18.092C86.9777 17.9375 86.9734 17.7487 86.9734 17.5256C86.9734 17.3025 86.9777 17.1137 86.9863 16.9592C87.0206 16.3671 87.1622 15.8565 87.4111 15.4274C87.6685 14.9897 88.0289 14.6507 88.4924 14.4104C88.9643 14.1702 89.535 14.05 90.2044 14.05C90.8738 14.05 91.4402 14.1702 91.9036 14.4104C92.3756 14.6507 92.736 14.9897 92.9849 15.4274C93.2423 15.8565 93.3882 16.3671 93.4226 16.9592C93.4311 17.1137 93.4354 17.3025 93.4354 17.5256C93.4354 17.7487 93.4311 17.9375 93.4226 18.092C93.3882 18.6756 93.2466 19.1862 92.9978 19.6239C92.7575 20.0615 92.4013 20.4005 91.9293 20.6408C91.4659 20.8811 90.8909 21.0012 90.2044 21.0012ZM90.2044 19.7268C90.6592 19.7268 91.0111 19.5852 91.26 19.302C91.5088 19.0103 91.6461 18.5855 91.6719 18.0276C91.6805 17.8989 91.6848 17.7316 91.6848 17.5256C91.6848 17.3197 91.6805 17.1523 91.6719 17.0236C91.6461 16.4744 91.5088 16.0538 91.26 15.7621C91.0111 15.4703 90.6592 15.3244 90.2044 15.3244C89.7496 15.3244 89.3977 15.4703 89.1489 15.7621C88.9 16.0538 88.7627 16.4744 88.7369 17.0236C88.7283 17.1523 88.7241 17.3197 88.7241 17.5256C88.7241 17.7316 88.7283 17.8989 88.7369 18.0276C88.7627 18.5855 88.9 19.0103 89.1489 19.302C89.3977 19.5852 89.7496 19.7268 90.2044 19.7268ZM96.8054 21.0012C96.3592 21.0012 95.9559 20.9154 95.5954 20.7438C95.235 20.5636 94.9475 20.3276 94.733 20.0358C94.527 19.7354 94.424 19.4007 94.424 19.0317C94.424 18.431 94.6643 17.9547 95.1449 17.6029C95.634 17.2424 96.2777 17.0021 97.0758 16.882L98.8393 16.6245V16.3542C98.8393 15.9938 98.7492 15.7149 98.569 15.5175C98.3888 15.3201 98.0798 15.2214 97.6422 15.2214C97.3332 15.2214 97.0801 15.2858 96.8827 15.4145C96.6939 15.5347 96.5523 15.6977 96.4579 15.9037C96.3892 16.0152 96.2905 16.071 96.1618 16.071H95.1449C95.0505 16.071 94.9775 16.0453 94.926 15.9938C94.8831 15.9423 94.8617 15.8736 94.8617 15.7878C94.8703 15.6505 94.926 15.4832 95.029 15.2858C95.132 15.0884 95.2951 14.8996 95.5182 14.7194C95.7413 14.5306 96.0288 14.3718 96.3807 14.2431C96.7325 14.1144 97.1573 14.05 97.655 14.05C98.1957 14.05 98.6505 14.1187 99.0195 14.256C99.3971 14.3847 99.6975 14.5606 99.9206 14.7838C100.144 15.0069 100.307 15.2686 100.41 15.569C100.513 15.8693 100.564 16.1869 100.564 16.5216V20.5636C100.564 20.6494 100.534 20.7223 100.474 20.7824C100.414 20.8425 100.341 20.8725 100.255 20.8725H99.2126C99.1182 20.8725 99.041 20.8425 98.9809 20.7824C98.9294 20.7223 98.9037 20.6494 98.9037 20.5636V20.0615C98.7921 20.2246 98.6419 20.379 98.4531 20.5249C98.2643 20.6622 98.0326 20.7781 97.758 20.8725C97.492 20.9583 97.1745 21.0012 96.8054 21.0012ZM97.2431 19.7783C97.5435 19.7783 97.8138 19.714 98.0541 19.5852C98.303 19.4565 98.496 19.2591 98.6334 18.9931C98.7792 18.7185 98.8522 18.3752 98.8522 17.9633V17.693L97.5649 17.8989C97.0586 17.9762 96.681 18.1006 96.4321 18.2722C96.1833 18.4439 96.0588 18.6541 96.0588 18.903C96.0588 19.0918 96.1146 19.2548 96.2262 19.3921C96.3463 19.5209 96.4965 19.6196 96.6767 19.6882C96.8569 19.7483 97.0457 19.7783 97.2431 19.7783ZM104.7 21.0012C104.254 21.0012 103.859 20.9283 103.516 20.7824C103.181 20.6279 102.902 20.4134 102.679 20.1388C102.456 19.8641 102.284 19.5423 102.164 19.1733C102.044 18.7957 101.975 18.3838 101.958 17.9375C101.95 17.7831 101.945 17.6458 101.945 17.5256C101.945 17.3969 101.95 17.2553 101.958 17.1008C101.975 16.6717 102.04 16.2727 102.151 15.9037C102.271 15.5347 102.443 15.2128 102.666 14.9382C102.898 14.655 103.181 14.4362 103.516 14.2817C103.859 14.1272 104.254 14.05 104.7 14.05C105.163 14.05 105.554 14.1315 105.871 14.2946C106.198 14.4491 106.468 14.6507 106.682 14.8996V12.0419C106.682 11.9561 106.708 11.8831 106.76 11.823C106.82 11.763 106.897 11.7329 106.991 11.7329H108.086C108.171 11.7329 108.244 11.763 108.304 11.823C108.364 11.8831 108.395 11.9561 108.395 12.0419V20.5636C108.395 20.6494 108.364 20.7223 108.304 20.7824C108.244 20.8425 108.171 20.8725 108.086 20.8725H107.069C106.974 20.8725 106.897 20.8425 106.837 20.7824C106.785 20.7223 106.76 20.6494 106.76 20.5636V20.0873C106.545 20.3533 106.271 20.5721 105.936 20.7438C105.61 20.9154 105.198 21.0012 104.7 21.0012ZM105.176 19.6239C105.537 19.6239 105.824 19.5423 106.039 19.3793C106.253 19.2162 106.412 19.0103 106.515 18.7614C106.618 18.5039 106.674 18.2422 106.682 17.9762C106.691 17.8217 106.695 17.6586 106.695 17.487C106.695 17.3068 106.691 17.1394 106.682 16.985C106.674 16.7275 106.614 16.4829 106.502 16.2512C106.391 16.0109 106.228 15.8136 106.013 15.6591C105.799 15.5046 105.52 15.4274 105.176 15.4274C104.816 15.4274 104.528 15.5089 104.314 15.672C104.108 15.8264 103.958 16.0324 103.863 16.2898C103.769 16.5473 103.713 16.8305 103.696 17.1394C103.687 17.3969 103.687 17.6543 103.696 17.9118C103.713 18.2207 103.769 18.5039 103.863 18.7614C103.958 19.0188 104.108 19.2291 104.314 19.3921C104.528 19.5466 104.816 19.6239 105.176 19.6239ZM116.012 21.0012C115.326 21.0012 114.747 20.8811 114.275 20.6408C113.811 20.4005 113.455 20.0615 113.206 19.6239C112.966 19.1862 112.829 18.6756 112.794 18.092C112.786 17.9375 112.781 17.7487 112.781 17.5256C112.781 17.3025 112.786 17.1137 112.794 16.9592C112.829 16.3671 112.97 15.8565 113.219 15.4274C113.477 14.9897 113.837 14.6507 114.3 14.4104C114.772 14.1702 115.343 14.05 116.012 14.05C116.682 14.05 117.248 14.1702 117.712 14.4104C118.184 14.6507 118.544 14.9897 118.793 15.4274C119.05 15.8565 119.196 16.3671 119.231 16.9592C119.239 17.1137 119.244 17.3025 119.244 17.5256C119.244 17.7487 119.239 17.9375 119.231 18.092C119.196 18.6756 119.055 19.1862 118.806 19.6239C118.566 20.0615 118.209 20.4005 117.737 20.6408C117.274 20.8811 116.699 21.0012 116.012 21.0012ZM116.012 19.7268C116.467 19.7268 116.819 19.5852 117.068 19.302C117.317 19.0103 117.454 18.5855 117.48 18.0276C117.489 17.8989 117.493 17.7316 117.493 17.5256C117.493 17.3197 117.489 17.1523 117.48 17.0236C117.454 16.4744 117.317 16.0538 117.068 15.7621C116.819 15.4703 116.467 15.3244 116.012 15.3244C115.558 15.3244 115.206 15.4703 114.957 15.7621C114.708 16.0538 114.571 16.4744 114.545 17.0236C114.536 17.1523 114.532 17.3197 114.532 17.5256C114.532 17.7316 114.536 17.8989 114.545 18.0276C114.571 18.5855 114.708 19.0103 114.957 19.302C115.206 19.5852 115.558 19.7268 116.012 19.7268ZM120.979 20.8725C120.893 20.8725 120.82 20.8425 120.76 20.7824C120.7 20.7223 120.67 20.6494 120.67 20.5636V14.4877C120.67 14.4019 120.7 14.3289 120.76 14.2688C120.82 14.2088 120.893 14.1787 120.979 14.1787H122.034C122.12 14.1787 122.193 14.2088 122.253 14.2688C122.313 14.3289 122.343 14.4019 122.343 14.4877V15.0155C122.566 14.7408 122.85 14.5134 123.193 14.3332C123.545 14.1444 123.978 14.05 124.493 14.05C125.016 14.05 125.471 14.1702 125.857 14.4104C126.244 14.6422 126.54 14.9725 126.746 15.4016C126.96 15.8307 127.067 16.3456 127.067 16.9463V20.5636C127.067 20.6494 127.037 20.7223 126.977 20.7824C126.917 20.8425 126.844 20.8725 126.759 20.8725H125.626C125.54 20.8725 125.467 20.8425 125.407 20.7824C125.347 20.7223 125.317 20.6494 125.317 20.5636V17.0236C125.317 16.5258 125.192 16.1354 124.943 15.8522C124.703 15.569 124.351 15.4274 123.888 15.4274C123.442 15.4274 123.086 15.569 122.819 15.8522C122.553 16.1354 122.42 16.5258 122.42 17.0236V20.5636C122.42 20.6494 122.39 20.7223 122.33 20.7824C122.27 20.8425 122.197 20.8725 122.112 20.8725H120.979ZM134.405 20.8725C133.89 20.8725 133.457 20.7824 133.105 20.6022C132.753 20.422 132.492 20.1559 132.32 19.8041C132.148 19.4436 132.062 18.9974 132.062 18.4653V15.5432H131.045C130.96 15.5432 130.887 15.5132 130.827 15.4531C130.767 15.3931 130.737 15.3201 130.737 15.2343V14.4877C130.737 14.4019 130.767 14.3289 130.827 14.2688C130.887 14.2088 130.96 14.1787 131.045 14.1787H132.062V12.0419C132.062 11.9561 132.088 11.8831 132.14 11.823C132.2 11.763 132.277 11.7329 132.371 11.7329H133.414C133.5 11.7329 133.573 11.763 133.633 11.823C133.693 11.8831 133.723 11.9561 133.723 12.0419V14.1787H135.332C135.418 14.1787 135.491 14.2088 135.551 14.2688C135.611 14.3289 135.641 14.4019 135.641 14.4877V15.2343C135.641 15.3201 135.611 15.3931 135.551 15.4531C135.491 15.5132 135.418 15.5432 135.332 15.5432H133.723V18.3366C133.723 18.6884 133.783 18.9631 133.903 19.1604C134.032 19.3578 134.251 19.4565 134.56 19.4565H135.448C135.534 19.4565 135.607 19.4865 135.667 19.5466C135.727 19.6067 135.757 19.6796 135.757 19.7655V20.5636C135.757 20.6494 135.727 20.7223 135.667 20.7824C135.607 20.8425 135.534 20.8725 135.448 20.8725H134.405ZM137.221 20.8725C137.135 20.8725 137.062 20.8425 137.002 20.7824C136.942 20.7223 136.912 20.6494 136.912 20.5636V12.0419C136.912 11.9561 136.942 11.8831 137.002 11.823C137.062 11.763 137.135 11.7329 137.221 11.7329H138.366C138.461 11.7329 138.534 11.763 138.585 11.823C138.645 11.8831 138.675 11.9561 138.675 12.0419V14.9768C138.907 14.7022 139.19 14.4791 139.525 14.3075C139.86 14.1358 140.271 14.05 140.761 14.05C141.284 14.05 141.739 14.1702 142.125 14.4104C142.52 14.6422 142.825 14.9725 143.039 15.4016C143.254 15.8307 143.361 16.3456 143.361 16.9463V20.5636C143.361 20.6494 143.331 20.7223 143.271 20.7824C143.211 20.8425 143.138 20.8725 143.052 20.8725H141.893C141.808 20.8725 141.735 20.8425 141.675 20.7824C141.614 20.7223 141.584 20.6494 141.584 20.5636V17.0236C141.584 16.5258 141.46 16.1354 141.211 15.8522C140.971 15.569 140.619 15.4274 140.156 15.4274C139.709 15.4274 139.349 15.569 139.074 15.8522C138.808 16.1354 138.675 16.5258 138.675 17.0236V20.5636C138.675 20.6494 138.645 20.7223 138.585 20.7824C138.534 20.8425 138.461 20.8725 138.366 20.8725H137.221ZM147.878 21.0012C146.925 21.0012 146.17 20.7266 145.612 20.1774C145.055 19.6281 144.754 18.8472 144.711 17.8346C144.703 17.7487 144.698 17.6415 144.698 17.5127C144.698 17.3754 144.703 17.2682 144.711 17.1909C144.746 16.5473 144.892 15.9895 145.149 15.5175C145.415 15.0455 145.78 14.6851 146.243 14.4362C146.707 14.1787 147.251 14.05 147.878 14.05C148.573 14.05 149.157 14.1959 149.629 14.4877C150.101 14.7709 150.457 15.1699 150.697 15.6848C150.937 16.1912 151.057 16.779 151.057 17.4484V17.7187C151.057 17.8045 151.027 17.8775 150.967 17.9375C150.907 17.9976 150.83 18.0276 150.736 18.0276H146.462C146.462 18.0276 146.462 18.0405 146.462 18.0663C146.462 18.092 146.462 18.1135 146.462 18.1306C146.471 18.431 146.526 18.7099 146.629 18.9674C146.741 19.2162 146.9 19.4179 147.106 19.5724C147.32 19.7268 147.573 19.8041 147.865 19.8041C148.105 19.8041 148.307 19.7697 148.47 19.7011C148.633 19.6239 148.766 19.538 148.869 19.4436C148.972 19.3492 149.045 19.272 149.088 19.2119C149.165 19.1089 149.225 19.0489 149.268 19.0317C149.32 19.006 149.393 18.9931 149.487 18.9931H150.594C150.68 18.9931 150.749 19.0188 150.8 19.0703C150.86 19.1218 150.886 19.1862 150.877 19.2634C150.869 19.4007 150.796 19.5681 150.658 19.7655C150.53 19.9628 150.341 20.1559 150.092 20.3447C149.843 20.5335 149.53 20.6923 149.152 20.821C148.783 20.9412 148.359 21.0012 147.878 21.0012ZM146.462 16.9463H149.307V16.9077C149.307 16.573 149.251 16.2813 149.139 16.0324C149.028 15.7835 148.865 15.5861 148.65 15.4403C148.436 15.2944 148.178 15.2214 147.878 15.2214C147.578 15.2214 147.32 15.2944 147.106 15.4403C146.891 15.5861 146.728 15.7835 146.616 16.0324C146.513 16.2813 146.462 16.573 146.462 16.9077V16.9463Z" fill="white"/>
<path d="M48.8694 44.8744C48.7239 44.8744 48.5875 44.8198 48.4602 44.7107C48.3511 44.6016 48.2965 44.4652 48.2965 44.3015C48.2965 44.2287 48.3147 44.1469 48.3511 44.0559L54.9262 26.4586C54.9807 26.2768 55.0808 26.1221 55.2263 25.9948C55.39 25.8493 55.6082 25.7766 55.8811 25.7766H58.8549C59.1277 25.7766 59.3369 25.8493 59.4824 25.9948C59.6279 26.1221 59.737 26.2768 59.8098 26.4586L66.3849 44.0559C66.4031 44.1469 66.4122 44.2287 66.4122 44.3015C66.4122 44.4652 66.3576 44.6016 66.2485 44.7107C66.1393 44.8198 66.012 44.8744 65.8665 44.8744H63.4929C63.2383 44.8744 63.0473 44.8198 62.92 44.7107C62.8109 44.5834 62.7381 44.4652 62.7017 44.356L61.4194 41.0275H53.3165L52.0342 44.356C51.9978 44.4652 51.916 44.5834 51.7887 44.7107C51.6795 44.8198 51.4977 44.8744 51.243 44.8744H48.8694ZM54.2714 37.89H60.4645L57.3543 29.4597L54.2714 37.89ZM67.4041 50.0581C67.2222 50.0581 67.0676 49.9944 66.9403 49.8671C66.813 49.7398 66.7493 49.5852 66.7493 49.4033V31.3422C66.7493 31.1603 66.813 31.0057 66.9403 30.8784C67.0676 30.7511 67.2222 30.6874 67.4041 30.6874H69.5595C69.7595 30.6874 69.9141 30.7511 70.0233 30.8784C70.1506 31.0057 70.2142 31.1603 70.2142 31.3422V32.4335C70.6508 31.8515 71.2237 31.3695 71.933 30.9875C72.6424 30.6056 73.5245 30.4146 74.5795 30.4146C75.5434 30.4146 76.3801 30.5692 77.0895 30.8784C77.7988 31.1876 78.3899 31.6332 78.8628 32.2153C79.3357 32.7791 79.6995 33.4521 79.9541 34.2342C80.2088 35.0163 80.3543 35.8802 80.3906 36.826C80.4088 37.1352 80.4179 37.4535 80.4179 37.7809C80.4179 38.1083 80.4088 38.4357 80.3906 38.7631C80.3725 39.6725 80.236 40.5183 79.9814 41.3004C79.7268 42.0643 79.3539 42.7373 78.8628 43.3193C78.3899 43.8831 77.7988 44.3287 77.0895 44.6561C76.3801 44.9835 75.5434 45.1472 74.5795 45.1472C73.5973 45.1472 72.7606 44.9744 72.0695 44.6288C71.3783 44.2651 70.8145 43.7922 70.3779 43.2102V49.4033C70.3779 49.5852 70.3143 49.7398 70.187 49.8671C70.0778 49.9944 69.9232 50.0581 69.7232 50.0581H67.4041ZM73.57 42.228C74.3521 42.228 74.9614 42.0643 75.3979 41.7369C75.8345 41.3913 76.1437 40.9457 76.3255 40.4C76.5256 39.8544 76.6438 39.2542 76.6802 38.5994C76.7166 38.0537 76.7166 37.5081 76.6802 36.9624C76.6438 36.3077 76.5256 35.7074 76.3255 35.1618C76.1437 34.6161 75.8345 34.1796 75.3979 33.8522C74.9614 33.5066 74.3521 33.3339 73.57 33.3339C72.8243 33.3339 72.215 33.5066 71.7421 33.8522C71.2874 34.1978 70.9509 34.6434 70.7326 35.1891C70.5325 35.7165 70.4143 36.2622 70.3779 36.826C70.3597 37.1534 70.3507 37.499 70.3507 37.8628C70.3507 38.2265 70.3597 38.5812 70.3779 38.9268C70.3961 39.4724 70.5234 39.9999 70.7599 40.5092C70.9963 41.0003 71.3419 41.4095 71.7966 41.7369C72.2513 42.0643 72.8425 42.228 73.57 42.228ZM82.2529 50.0581C82.071 50.0581 81.9164 49.9944 81.7891 49.8671C81.6618 49.7398 81.5981 49.5852 81.5981 49.4033V31.3422C81.5981 31.1603 81.6618 31.0057 81.7891 30.8784C81.9164 30.7511 82.071 30.6874 82.2529 30.6874H84.4082C84.6083 30.6874 84.7629 30.7511 84.872 30.8784C84.9993 31.0057 85.063 31.1603 85.063 31.3422V32.4335C85.4995 31.8515 86.0725 31.3695 86.7818 30.9875C87.4912 30.6056 88.3733 30.4146 89.4282 30.4146C90.3922 30.4146 91.2289 30.5692 91.9382 30.8784C92.6476 31.1876 93.2387 31.6332 93.7116 32.2153C94.1845 32.7791 94.5483 33.4521 94.8029 34.2342C95.0575 35.0163 95.203 35.8802 95.2394 36.826C95.2576 37.1352 95.2667 37.4535 95.2667 37.7809C95.2667 38.1083 95.2576 38.4357 95.2394 38.7631C95.2212 39.6725 95.0848 40.5183 94.8302 41.3004C94.5755 42.0643 94.2027 42.7373 93.7116 43.3193C93.2387 43.8831 92.6476 44.3287 91.9382 44.6561C91.2289 44.9835 90.3922 45.1472 89.4282 45.1472C88.446 45.1472 87.6094 44.9744 86.9182 44.6288C86.2271 44.2651 85.6632 43.7922 85.2267 43.2102V49.4033C85.2267 49.5852 85.163 49.7398 85.0357 49.8671C84.9266 49.9944 84.772 50.0581 84.5719 50.0581H82.2529ZM88.4188 42.228C89.2009 42.228 89.8102 42.0643 90.2467 41.7369C90.6832 41.3913 90.9924 40.9457 91.1743 40.4C91.3744 39.8544 91.4926 39.2542 91.529 38.5994C91.5654 38.0537 91.5654 37.5081 91.529 36.9624C91.4926 36.3077 91.3744 35.7074 91.1743 35.1618C90.9924 34.6161 90.6832 34.1796 90.2467 33.8522C89.8102 33.5066 89.2009 33.3339 88.4188 33.3339C87.673 33.3339 87.0637 33.5066 86.5908 33.8522C86.1361 34.1978 85.7996 34.6434 85.5814 35.1891C85.3813 35.7165 85.2631 36.2622 85.2267 36.826C85.2085 37.1534 85.1994 37.499 85.1994 37.8628C85.1994 38.2265 85.2085 38.5812 85.2267 38.9268C85.2449 39.4724 85.3722 39.9999 85.6087 40.5092C85.8451 41.0003 86.1907 41.4095 86.6454 41.7369C87.1001 42.0643 87.6912 42.228 88.4188 42.228ZM107.701 45.1472C106.01 45.1472 104.591 44.9017 103.445 44.4106C102.318 43.9013 101.454 43.2465 100.853 42.4462C100.271 41.6278 99.9622 40.7729 99.9258 39.8817C99.9258 39.718 99.9804 39.5816 100.09 39.4724C100.199 39.3633 100.335 39.3087 100.499 39.3087H102.927C103.163 39.3087 103.336 39.3633 103.445 39.4724C103.573 39.5634 103.682 39.6816 103.773 39.8271C103.882 40.1727 104.091 40.5183 104.4 40.8638C104.709 41.1912 105.128 41.4641 105.655 41.6823C106.201 41.9006 106.883 42.0097 107.701 42.0097C109.011 42.0097 109.984 41.7915 110.621 41.3549C111.275 40.9184 111.603 40.3273 111.603 39.5816C111.603 39.0541 111.43 38.6358 111.084 38.3266C110.739 37.9992 110.202 37.7082 109.475 37.4535C108.765 37.1807 107.82 36.8988 106.637 36.6078C105.273 36.2804 104.127 35.8893 103.2 35.4346C102.29 34.9617 101.599 34.3706 101.126 33.6612C100.672 32.9519 100.444 32.0516 100.444 30.9603C100.444 29.9053 100.726 28.9686 101.29 28.1502C101.872 27.3317 102.69 26.686 103.745 26.2131C104.819 25.7402 106.092 25.5037 107.565 25.5037C108.747 25.5037 109.793 25.6674 110.702 25.9948C111.612 26.304 112.367 26.7224 112.967 27.2498C113.567 27.7591 114.022 28.3139 114.331 28.9141C114.658 29.4961 114.831 30.069 114.849 30.6329C114.849 30.7784 114.795 30.9148 114.686 31.0421C114.595 31.1512 114.458 31.2058 114.276 31.2058H111.739C111.594 31.2058 111.448 31.1694 111.303 31.0967C111.157 31.0239 111.039 30.8875 110.948 30.6874C110.839 30.1236 110.484 29.6416 109.884 29.2415C109.284 28.8413 108.511 28.6412 107.565 28.6412C106.583 28.6412 105.792 28.8231 105.191 29.1869C104.591 29.5507 104.291 30.1145 104.291 30.8784C104.291 31.3877 104.437 31.8151 104.728 32.1607C105.037 32.4881 105.519 32.7791 106.174 33.0337C106.847 33.2884 107.729 33.5612 108.82 33.8522C110.366 34.1978 111.63 34.5979 112.612 35.0527C113.594 35.5074 114.313 36.0894 114.768 36.7987C115.222 37.4899 115.45 38.372 115.45 39.4452C115.45 40.6456 115.122 41.6732 114.467 42.5281C113.831 43.3648 112.931 44.0104 111.766 44.4652C110.602 44.9199 109.247 45.1472 107.701 45.1472ZM122.751 44.8744C121.659 44.8744 120.741 44.6834 119.995 44.3015C119.249 43.9195 118.694 43.3557 118.331 42.6099C117.967 41.846 117.785 40.9002 117.785 39.7725V33.5794H115.63C115.448 33.5794 115.293 33.5157 115.166 33.3884C115.039 33.2611 114.975 33.1065 114.975 32.9246V31.3422C114.975 31.1603 115.039 31.0057 115.166 30.8784C115.293 30.7511 115.448 30.6874 115.63 30.6874H117.785V26.1585C117.785 25.9766 117.84 25.822 117.949 25.6947C118.076 25.5674 118.24 25.5037 118.44 25.5037H120.65C120.832 25.5037 120.986 25.5674 121.114 25.6947C121.241 25.822 121.305 25.9766 121.305 26.1585V30.6874H124.715C124.897 30.6874 125.051 30.7511 125.179 30.8784C125.306 31.0057 125.37 31.1603 125.37 31.3422V32.9246C125.37 33.1065 125.306 33.2611 125.179 33.3884C125.051 33.5157 124.897 33.5794 124.715 33.5794H121.305V39.4997C121.305 40.2454 121.432 40.8275 121.686 41.2458C121.959 41.6641 122.423 41.8733 123.078 41.8733H124.96C125.142 41.8733 125.297 41.937 125.424 42.0643C125.552 42.1916 125.615 42.3462 125.615 42.5281V44.2196C125.615 44.4015 125.552 44.5561 125.424 44.6834C125.297 44.8107 125.142 44.8744 124.96 44.8744H122.751ZM132.401 45.1472C130.946 45.1472 129.718 44.8926 128.718 44.3833C127.735 43.874 126.981 43.1556 126.453 42.228C125.944 41.3004 125.653 40.2182 125.58 38.9813C125.562 38.654 125.553 38.2538 125.553 37.7809C125.553 37.308 125.562 36.9079 125.58 36.5805C125.653 35.3255 125.953 34.2433 126.48 33.3339C127.026 32.4062 127.79 31.6878 128.772 31.1785C129.772 30.6692 130.982 30.4146 132.401 30.4146C133.819 30.4146 135.02 30.6692 136.002 31.1785C137.002 31.6878 137.766 32.4062 138.294 33.3339C138.839 34.2433 139.149 35.3255 139.221 36.5805C139.24 36.9079 139.249 37.308 139.249 37.7809C139.249 38.2538 139.24 38.654 139.221 38.9813C139.149 40.2182 138.848 41.3004 138.321 42.228C137.812 43.1556 137.057 43.874 136.057 44.3833C135.074 44.8926 133.856 45.1472 132.401 45.1472ZM132.401 42.4462C133.365 42.4462 134.11 42.1461 134.638 41.5459C135.165 40.9275 135.456 40.0272 135.511 38.8449C135.529 38.5721 135.538 38.2174 135.538 37.7809C135.538 37.3444 135.529 36.9897 135.511 36.7169C135.456 35.5528 135.165 34.6616 134.638 34.0432C134.11 33.4248 133.365 33.1156 132.401 33.1156C131.437 33.1156 130.691 33.4248 130.163 34.0432C129.636 34.6616 129.345 35.5528 129.29 36.7169C129.272 36.9897 129.263 37.3444 129.263 37.7809C129.263 38.2174 129.272 38.5721 129.29 38.8449C129.345 40.0272 129.636 40.9275 130.163 41.5459C130.691 42.1461 131.437 42.4462 132.401 42.4462ZM141.016 44.8744C140.835 44.8744 140.68 44.8107 140.553 44.6834C140.425 44.5561 140.362 44.4015 140.362 44.2196V31.3695C140.362 31.1694 140.425 31.0057 140.553 30.8784C140.68 30.7511 140.835 30.6874 141.016 30.6874H143.226C143.408 30.6874 143.563 30.7511 143.69 30.8784C143.836 31.0057 143.908 31.1694 143.908 31.3695V32.4881C144.327 31.9061 144.863 31.4604 145.518 31.1512C146.191 30.842 146.964 30.6874 147.837 30.6874H148.956C149.156 30.6874 149.31 30.7511 149.419 30.8784C149.547 31.0057 149.61 31.1603 149.61 31.3422V33.3066C149.61 33.4885 149.547 33.6431 149.419 33.7704C149.31 33.8977 149.156 33.9614 148.956 33.9614H146.828C145.955 33.9614 145.273 34.2069 144.781 34.698C144.309 35.1891 144.072 35.862 144.072 36.7169V44.2196C144.072 44.4015 144.008 44.5561 143.881 44.6834C143.754 44.8107 143.59 44.8744 143.39 44.8744H141.016ZM155.753 45.1472C153.734 45.1472 152.134 44.5652 150.952 43.4011C149.769 42.2371 149.133 40.5819 149.042 38.4357C149.024 38.2538 149.014 38.0265 149.014 37.7536C149.014 37.4626 149.024 37.2353 149.042 37.0716C149.115 35.7074 149.424 34.5252 149.969 33.5248C150.533 32.5245 151.306 31.7606 152.288 31.2331C153.271 30.6874 154.426 30.4146 155.753 30.4146C157.227 30.4146 158.463 30.7238 159.464 31.3422C160.464 31.9424 161.219 32.7882 161.728 33.8795C162.237 34.9526 162.492 36.1985 162.492 37.6172V38.1902C162.492 38.372 162.428 38.5266 162.301 38.654C162.174 38.7813 162.01 38.8449 161.81 38.8449H152.752C152.752 38.8449 152.752 38.8722 152.752 38.9268C152.752 38.9813 152.752 39.0268 152.752 39.0632C152.77 39.6998 152.889 40.2909 153.107 40.8366C153.343 41.364 153.68 41.7915 154.116 42.1188C154.571 42.4462 155.108 42.6099 155.726 42.6099C156.235 42.6099 156.663 42.5372 157.008 42.3917C157.354 42.228 157.636 42.0461 157.854 41.846C158.072 41.6459 158.227 41.4823 158.318 41.3549C158.482 41.1367 158.609 41.0094 158.7 40.973C158.809 40.9184 158.964 40.8911 159.164 40.8911H161.51C161.692 40.8911 161.837 40.9457 161.946 41.0548C162.074 41.164 162.128 41.3004 162.11 41.4641C162.092 41.7551 161.937 42.1098 161.646 42.5281C161.374 42.9464 160.973 43.3557 160.446 43.7558C159.918 44.1559 159.255 44.4924 158.454 44.7653C157.672 45.0199 156.772 45.1472 155.753 45.1472ZM152.752 36.5532H158.782V36.4713C158.782 35.762 158.663 35.1436 158.427 34.6161C158.191 34.0887 157.845 33.6703 157.39 33.3611C156.936 33.0519 156.39 32.8973 155.753 32.8973C155.117 32.8973 154.571 33.0519 154.116 33.3611C153.662 33.6703 153.316 34.0887 153.08 34.6161C152.861 35.1436 152.752 35.762 152.752 36.4713V36.5532Z" fill="white"/>
</svg>
