<svg width="47" height="47" viewBox="0 0 47 47" fill="none" xmlns="http://www.w3.org/2000/svg">
<path d="M0 23.4375C0 10.4933 10.4933 0 23.4375 0C36.3817 0 46.875 10.4933 46.875 23.4375C46.875 36.3817 36.3817 46.875 23.4375 46.875C10.4933 46.875 0 36.3817 0 23.4375Z" fill="#197C2C"/>
<path d="M16.1079 27.8319C14.6431 29.0624 14.1548 32.7147 14.1548 32.7147C14.1548 32.7147 17.8071 32.2265 19.0376 30.7616C19.731 29.9413 19.7212 28.6815 18.9497 27.9198C18.5701 27.5575 18.0701 27.3482 17.5456 27.332C17.0212 27.3157 16.5092 27.4938 16.1079 27.8319Z" stroke="white" stroke-width="1.95313" stroke-linecap="round" stroke-linejoin="round"/>
<path d="M23.4321 26.3672L20.5024 23.4375C21.0221 22.0893 21.6765 20.7969 22.4556 19.5801C23.5934 17.7607 25.1779 16.2627 27.0581 15.2286C28.9384 14.1945 31.0519 13.6586 33.1978 13.6719C33.1978 16.3281 32.436 20.9961 27.3384 24.4141C26.1049 25.1941 24.7962 25.8484 23.4321 26.3672Z" stroke="white" stroke-width="1.95313" stroke-linecap="round" stroke-linejoin="round"/>
<path d="M20.5024 23.4374H15.6196C15.6196 23.4374 16.1567 20.4784 17.5728 19.5311C19.1548 18.4764 22.4556 19.5311 22.4556 19.5311" stroke="white" stroke-width="1.95313" stroke-linecap="round" stroke-linejoin="round"/>
<path d="M23.4321 26.3671V31.2499C23.4321 31.2499 26.3911 30.7128 27.3384 29.2968C28.3931 27.7147 27.3384 24.4139 27.3384 24.4139" stroke="white" stroke-width="1.95313" stroke-linecap="round" stroke-linejoin="round"/>
</svg>
