<svg width="48" height="48" viewBox="0 0 48 48" fill="none" xmlns="http://www.w3.org/2000/svg">
<path d="M0 23.5359C0 10.5374 10.5374 0 23.5359 0C36.5345 0 47.0719 10.5374 47.0719 23.5359C47.0719 36.5345 36.5345 47.0719 23.5359 47.0719C10.5374 47.0719 0 36.5345 0 23.5359Z" fill="#E5454D"/>
<path d="M23.5313 33.3433C28.9473 33.3433 33.3379 28.9527 33.3379 23.5366C33.3379 18.1206 28.9473 13.73 23.5313 13.73C18.1152 13.73 13.7246 18.1206 13.7246 23.5366C13.7246 28.9527 18.1152 33.3433 23.5313 33.3433Z" stroke="white" stroke-width="1.96133" stroke-linecap="round" stroke-linejoin="round"/>
<path d="M23.5314 29.4198C26.7811 29.4198 29.4154 26.7854 29.4154 23.5358C29.4154 20.2861 26.7811 17.6518 23.5314 17.6518C20.2818 17.6518 17.6475 20.2861 17.6475 23.5358C17.6475 26.7854 20.2818 29.4198 23.5314 29.4198Z" stroke="white" stroke-width="1.96133" stroke-linecap="round" stroke-linejoin="round"/>
<path d="M23.5312 25.4972C24.6144 25.4972 25.4925 24.6191 25.4925 23.5359C25.4925 22.4527 24.6144 21.5746 23.5312 21.5746C22.4479 21.5746 21.5698 22.4527 21.5698 23.5359C21.5698 24.6191 22.4479 25.4972 23.5312 25.4972Z" stroke="white" stroke-width="1.96133" stroke-linecap="round" stroke-linejoin="round"/>
</svg>
