<svg width="45" height="45" viewBox="0 0 45 45" fill="none" xmlns="http://www.w3.org/2000/svg">
<path d="M7.43442 26.0222C7.08268 26.0234 6.73782 25.9248 6.43991 25.7378C6.14199 25.5508 5.90325 25.2831 5.75142 24.9658C5.59959 24.6486 5.5409 24.2947 5.58218 23.9454C5.62346 23.5961 5.763 23.2656 5.9846 22.9925L24.3862 4.03323C24.5243 3.8739 24.7124 3.76623 24.9197 3.7279C25.1269 3.68956 25.3411 3.72284 25.527 3.82227C25.7129 3.9217 25.8594 4.08137 25.9426 4.27507C26.0258 4.46877 26.0407 4.685 25.9847 4.88826L22.416 16.0779C22.3107 16.3596 22.2754 16.6625 22.313 16.9609C22.3505 17.2592 22.4599 17.5439 22.6317 17.7906C22.8035 18.0374 23.0326 18.2388 23.2994 18.3775C23.5661 18.5163 23.8625 18.5882 24.1632 18.5872H37.1744C37.5262 18.586 37.871 18.6847 38.1689 18.8717C38.4669 19.0587 38.7056 19.3264 38.8574 19.6437C39.0093 19.9609 39.0679 20.3148 39.0267 20.6641C38.9854 21.0134 38.8459 21.3438 38.6243 21.617L20.2226 40.5763C20.0846 40.7356 19.8965 40.8433 19.6892 40.8816C19.4819 40.9199 19.2677 40.8866 19.0819 40.7872C18.896 40.6878 18.7494 40.5281 18.6662 40.3344C18.583 40.1407 18.5682 39.9245 18.6241 39.7212L22.1929 28.5316C22.2981 28.2499 22.3335 27.9469 22.2959 27.6486C22.2583 27.3503 22.1489 27.0656 21.9771 26.8189C21.8053 26.5721 21.5762 26.3707 21.3095 26.232C21.0427 26.0932 20.7463 26.0213 20.4457 26.0222H7.43442Z" stroke="white" stroke-width="3.7175" stroke-linecap="round" stroke-linejoin="round"/>
</svg>
