<svg width="45" height="45" viewBox="0 0 45 45" fill="none" xmlns="http://www.w3.org/2000/svg">
<path d="M22.3027 13.0103V39.03" stroke="white" stroke-width="3.71711" stroke-linecap="round" stroke-linejoin="round"/>
<path d="M5.57633 33.454C5.08341 33.454 4.61068 33.2582 4.26213 32.9096C3.91358 32.5611 3.71777 32.0883 3.71777 31.5954V7.43424C3.71777 6.94132 3.91358 6.46859 4.26213 6.12004C4.61068 5.77149 5.08341 5.57568 5.57633 5.57568H14.8691C16.8408 5.57568 18.7317 6.35893 20.1259 7.75311C21.5201 9.1473 22.3033 11.0382 22.3033 13.0099C22.3033 11.0382 23.0865 9.1473 24.4807 7.75311C25.8749 6.35893 27.7658 5.57568 29.7375 5.57568H39.0303C39.5232 5.57568 39.9959 5.77149 40.3445 6.12004C40.693 6.46859 40.8888 6.94132 40.8888 7.43424V31.5954C40.8888 32.0883 40.693 32.5611 40.3445 32.9096C39.9959 33.2582 39.5232 33.454 39.0303 33.454H27.879C26.4002 33.454 24.982 34.0414 23.9364 35.087C22.8907 36.1327 22.3033 37.5509 22.3033 39.0296C22.3033 37.5509 21.7159 36.1327 20.6702 35.087C19.6246 34.0414 18.2064 33.454 16.7276 33.454H5.57633Z" stroke="white" stroke-width="3.71711" stroke-linecap="round" stroke-linejoin="round"/>
</svg>
