<svg width="182" height="62" viewBox="0 0 182 62" fill="none" xmlns="http://www.w3.org/2000/svg">
<path d="M36.2492 35.9345C40.3362 33.6502 43.4616 31.9098 43.7288 31.7738C44.5836 31.3115 45.4651 30.0878 43.7288 29.136C43.1678 28.8368 40.1492 27.1508 36.2492 24.9752L30.8799 30.4685L36.2492 35.9345Z" fill="#FFDD33"/>
<path d="M30.8801 30.4684L13.7305 48.0632C14.1312 48.1175 14.5853 48.0088 15.1195 47.7096C16.2415 47.0842 28.1554 40.4488 36.2494 35.9345L30.8801 30.4684Z" fill="#FF6666"/>
<path d="M30.88 30.4685L36.2493 24.9752C36.2493 24.9752 16.3215 13.9071 15.1194 13.2545C14.6653 12.9825 14.1577 12.9009 13.7036 12.9825L30.88 30.4685Z" fill="#7BFF7B"/>
<path d="M30.88 30.4685L13.7036 12.9825C13.0091 13.1457 12.4214 13.7712 12.4214 15.0493C12.4214 17.0889 12.4214 44.2832 12.4214 45.9964C12.4214 47.1658 12.8755 48.0088 13.7303 48.0904L30.88 30.4685Z" fill="#6ED8FF"/>
<path d="M58.105 21.0012C57.3155 21.0012 56.6418 20.8639 56.084 20.5893C55.5348 20.3147 55.1057 19.9199 54.7968 19.405C54.4964 18.8815 54.3333 18.2594 54.3076 17.5385C54.299 17.1695 54.2947 16.7747 54.2947 16.3542C54.2947 15.9251 54.299 15.5218 54.3076 15.1442C54.3333 14.4319 54.4964 13.8226 54.7968 13.3163C55.1057 12.8099 55.5391 12.4195 56.0969 12.1449C56.6633 11.8702 57.3327 11.7329 58.105 11.7329C58.7315 11.7329 59.2807 11.8188 59.7527 11.9904C60.2247 12.1534 60.6152 12.368 60.9241 12.634C61.2417 12.8915 61.4776 13.1704 61.6321 13.4707C61.7952 13.7711 61.881 14.05 61.8896 14.3075C61.8982 14.3847 61.8767 14.4491 61.8252 14.5006C61.7737 14.552 61.7051 14.5778 61.6192 14.5778H60.2934C60.2076 14.5778 60.1432 14.5606 60.1003 14.5263C60.0574 14.492 60.0188 14.4405 59.9844 14.3718C59.9158 14.1916 59.8085 14.0157 59.6626 13.844C59.5167 13.6638 59.3193 13.5137 59.0705 13.3935C58.8216 13.2734 58.4998 13.2133 58.105 13.2133C57.5215 13.2133 57.0538 13.3678 56.7019 13.6767C56.3586 13.9856 56.1741 14.4963 56.1484 15.2085C56.1226 15.9552 56.1226 16.7104 56.1484 17.4741C56.1741 18.2036 56.3629 18.7271 56.7148 19.0446C57.0752 19.3621 57.5472 19.5209 58.1308 19.5209C58.5169 19.5209 58.8602 19.4522 59.1606 19.3149C59.4695 19.1776 59.7098 18.9631 59.8814 18.6713C60.0617 18.3795 60.1518 18.0062 60.1518 17.5514V17.1523H58.5813C58.4955 17.1523 58.4225 17.1223 58.3625 17.0622C58.3024 17.0021 58.2724 16.9249 58.2724 16.8305V16.1482C58.2724 16.0538 58.3024 15.9766 58.3625 15.9165C58.4225 15.8565 58.4955 15.8264 58.5813 15.8264H61.6579C61.7523 15.8264 61.8252 15.8565 61.8767 15.9165C61.9368 15.9766 61.9668 16.0538 61.9668 16.1482V17.4999C61.9668 18.2207 61.808 18.8429 61.4905 19.3664C61.1816 19.8899 60.7353 20.2932 60.1518 20.5764C59.5768 20.8596 58.8945 21.0012 58.105 21.0012ZM66.346 21.0012C65.3934 21.0012 64.6382 20.7266 64.0804 20.1774C63.5226 19.6281 63.2223 18.8472 63.1793 17.8346C63.1708 17.7487 63.1665 17.6415 63.1665 17.5127C63.1665 17.3754 63.1708 17.2682 63.1793 17.1909C63.2137 16.5473 63.3596 15.9895 63.617 15.5175C63.8831 15.0455 64.2478 14.6851 64.7112 14.4362C65.1746 14.1787 65.7195 14.05 66.346 14.05C67.0411 14.05 67.6247 14.1959 68.0967 14.4877C68.5687 14.7709 68.9248 15.1699 69.1651 15.6848C69.4054 16.1912 69.5255 16.779 69.5255 17.4484V17.7187C69.5255 17.8045 69.4955 17.8775 69.4354 17.9375C69.3754 17.9976 69.2981 18.0276 69.2037 18.0276H64.93C64.93 18.0276 64.93 18.0405 64.93 18.0663C64.93 18.092 64.93 18.1135 64.93 18.1306C64.9386 18.431 64.9944 18.7099 65.0974 18.9674C65.2089 19.2162 65.3677 19.4179 65.5737 19.5724C65.7882 19.7268 66.0414 19.8041 66.3331 19.8041C66.5734 19.8041 66.7751 19.7697 66.9382 19.7011C67.1012 19.6239 67.2342 19.538 67.3372 19.4436C67.4402 19.3492 67.5131 19.272 67.556 19.2119C67.6333 19.1089 67.6933 19.0489 67.7363 19.0317C67.7877 19.006 67.8607 18.9931 67.9551 18.9931H69.0621C69.148 18.9931 69.2166 19.0188 69.2681 19.0703C69.3282 19.1218 69.3539 19.1862 69.3453 19.2634C69.3368 19.4007 69.2638 19.5681 69.1265 19.7655C68.9978 19.9628 68.809 20.1559 68.5601 20.3447C68.3112 20.5335 67.998 20.6923 67.6204 20.821C67.2514 20.9412 66.8266 21.0012 66.346 21.0012ZM64.93 16.9463H67.7749V16.9077C67.7749 16.573 67.7191 16.2813 67.6075 16.0324C67.496 15.7835 67.3329 15.5861 67.1184 15.4403C66.9038 15.2944 66.6464 15.2214 66.346 15.2214C66.0457 15.2214 65.7882 15.2944 65.5737 15.4403C65.3591 15.5861 65.1961 15.7835 65.0845 16.0324C64.9815 16.2813 64.93 16.573 64.93 16.9077V16.9463ZM73.8919 20.8725C73.377 20.8725 72.9436 20.7824 72.5917 20.6022C72.2399 20.422 71.9781 20.1559 71.8065 19.8041C71.6349 19.4436 71.5491 18.9974 71.5491 18.4653V15.5432H70.5321C70.4463 15.5432 70.3734 15.5132 70.3133 15.4531C70.2532 15.3931 70.2232 15.3201 70.2232 15.2343V14.4877C70.2232 14.4019 70.2532 14.3289 70.3133 14.2688C70.3734 14.2088 70.4463 14.1787 70.5321 14.1787H71.5491V12.0419C71.5491 11.9561 71.5748 11.8831 71.6263 11.823C71.6864 11.763 71.7636 11.7329 71.858 11.7329H72.9007C72.9865 11.7329 73.0594 11.763 73.1195 11.823C73.1796 11.8831 73.2096 11.9561 73.2096 12.0419V14.1787H74.8187C74.9045 14.1787 74.9775 14.2088 75.0375 14.2688C75.0976 14.3289 75.1276 14.4019 75.1276 14.4877V15.2343C75.1276 15.3201 75.0976 15.3931 75.0375 15.4531C74.9775 15.5132 74.9045 15.5432 74.8187 15.5432H73.2096V18.3366C73.2096 18.6884 73.2697 18.9631 73.3898 19.1604C73.5186 19.3578 73.7374 19.4565 74.0464 19.4565H74.9346C75.0204 19.4565 75.0933 19.4865 75.1534 19.5466C75.2135 19.6067 75.2435 19.6796 75.2435 19.7655V20.5636C75.2435 20.6494 75.2135 20.7223 75.1534 20.7824C75.0933 20.8425 75.0204 20.8725 74.9346 20.8725H73.8919ZM79.636 20.8725C79.5502 20.8725 79.4772 20.8425 79.4171 20.7824C79.3571 20.7223 79.327 20.6494 79.327 20.5636V14.4877C79.327 14.4019 79.3571 14.3289 79.4171 14.2688C79.4772 14.2088 79.5502 14.1787 79.636 14.1787H80.7044C80.7988 14.1787 80.8718 14.2088 80.9232 14.2688C80.9833 14.3289 81.0134 14.4019 81.0134 14.4877V20.5636C81.0134 20.6494 80.9833 20.7223 80.9232 20.7824C80.8718 20.8425 80.7988 20.8725 80.7044 20.8725H79.636ZM79.5845 13.0717C79.4901 13.0717 79.4129 13.0459 79.3528 12.9945C79.3013 12.9344 79.2755 12.8571 79.2755 12.7627V11.8359C79.2755 11.7501 79.3013 11.6772 79.3528 11.6171C79.4129 11.557 79.4901 11.527 79.5845 11.527H80.7559C80.8503 11.527 80.9275 11.557 80.9876 11.6171C81.0477 11.6772 81.0777 11.7501 81.0777 11.8359V12.7627C81.0777 12.8571 81.0477 12.9344 80.9876 12.9945C80.9275 13.0459 80.8503 13.0717 80.7559 13.0717H79.5845ZM85.7463 20.8725C85.2313 20.8725 84.798 20.7824 84.4461 20.6022C84.0943 20.422 83.8325 20.1559 83.6609 19.8041C83.4893 19.4436 83.4034 18.9974 83.4034 18.4653V15.5432H82.3865C82.3007 15.5432 82.2277 15.5132 82.1677 15.4531C82.1076 15.3931 82.0776 15.3201 82.0776 15.2343V14.4877C82.0776 14.4019 82.1076 14.3289 82.1677 14.2688C82.2277 14.2088 82.3007 14.1787 82.3865 14.1787H83.4034V12.0419C83.4034 11.9561 83.4292 11.8831 83.4807 11.823C83.5407 11.763 83.618 11.7329 83.7124 11.7329H84.7551C84.8409 11.7329 84.9138 11.763 84.9739 11.823C85.034 11.8831 85.064 11.9561 85.064 12.0419V14.1787H86.6731C86.7589 14.1787 86.8318 14.2088 86.8919 14.2688C86.952 14.3289 86.982 14.4019 86.982 14.4877V15.2343C86.982 15.3201 86.952 15.3931 86.8919 15.4531C86.8318 15.5132 86.7589 15.5432 86.6731 15.5432H85.064V18.3366C85.064 18.6884 85.1241 18.9631 85.2442 19.1604C85.3729 19.3578 85.5918 19.4565 85.9007 19.4565H86.7889C86.8748 19.4565 86.9477 19.4865 87.0078 19.5466C87.0678 19.6067 87.0979 19.6796 87.0979 19.7655V20.5636C87.0979 20.6494 87.0678 20.7223 87.0078 20.7824C86.9477 20.8425 86.8748 20.8725 86.7889 20.8725H85.7463ZM94.1421 21.0012C93.4556 21.0012 92.8763 20.8811 92.4043 20.6408C91.9409 20.4005 91.5848 20.0615 91.3359 19.6239C91.0956 19.1862 90.9583 18.6756 90.924 18.092C90.9154 17.9375 90.9111 17.7487 90.9111 17.5256C90.9111 17.3025 90.9154 17.1137 90.924 16.9592C90.9583 16.3671 91.0999 15.8565 91.3488 15.4274C91.6062 14.9897 91.9666 14.6507 92.4301 14.4104C92.902 14.1702 93.4727 14.05 94.1421 14.05C94.8115 14.05 95.3779 14.1702 95.8413 14.4104C96.3133 14.6507 96.6737 14.9897 96.9226 15.4274C97.18 15.8565 97.3259 16.3671 97.3603 16.9592C97.3688 17.1137 97.3731 17.3025 97.3731 17.5256C97.3731 17.7487 97.3688 17.9375 97.3603 18.092C97.3259 18.6756 97.1843 19.1862 96.9355 19.6239C96.6952 20.0615 96.339 20.4005 95.867 20.6408C95.4036 20.8811 94.8287 21.0012 94.1421 21.0012ZM94.1421 19.7268C94.5969 19.7268 94.9488 19.5852 95.1977 19.302C95.4465 19.0103 95.5838 18.5855 95.6096 18.0276C95.6182 17.8989 95.6225 17.7316 95.6225 17.5256C95.6225 17.3197 95.6182 17.1523 95.6096 17.0236C95.5838 16.4744 95.4465 16.0538 95.1977 15.7621C94.9488 15.4703 94.5969 15.3244 94.1421 15.3244C93.6873 15.3244 93.3354 15.4703 93.0866 15.7621C92.8377 16.0538 92.7004 16.4744 92.6746 17.0236C92.6661 17.1523 92.6618 17.3197 92.6618 17.5256C92.6618 17.7316 92.6661 17.8989 92.6746 18.0276C92.7004 18.5855 92.8377 19.0103 93.0866 19.302C93.3354 19.5852 93.6873 19.7268 94.1421 19.7268ZM99.1083 20.8725C99.0225 20.8725 98.9496 20.8425 98.8895 20.7824C98.8294 20.7223 98.7994 20.6494 98.7994 20.5636V14.4877C98.7994 14.4019 98.8294 14.3289 98.8895 14.2688C98.9496 14.2088 99.0225 14.1787 99.1083 14.1787H100.164C100.25 14.1787 100.323 14.2088 100.383 14.2688C100.443 14.3289 100.473 14.4019 100.473 14.4877V15.0155C100.696 14.7408 100.979 14.5134 101.322 14.3332C101.674 14.1444 102.108 14.05 102.623 14.05C103.146 14.05 103.601 14.1702 103.987 14.4104C104.373 14.6422 104.669 14.9725 104.875 15.4016C105.09 15.8307 105.197 16.3456 105.197 16.9463V20.5636C105.197 20.6494 105.167 20.7223 105.107 20.7824C105.047 20.8425 104.974 20.8725 104.888 20.8725H103.755C103.67 20.8725 103.597 20.8425 103.537 20.7824C103.476 20.7223 103.446 20.6494 103.446 20.5636V17.0236C103.446 16.5258 103.322 16.1354 103.073 15.8522C102.833 15.569 102.481 15.4274 102.018 15.4274C101.571 15.4274 101.215 15.569 100.949 15.8522C100.683 16.1354 100.55 16.5258 100.55 17.0236V20.5636C100.55 20.6494 100.52 20.7223 100.46 20.7824C100.4 20.8425 100.327 20.8725 100.241 20.8725H99.1083Z" fill="white"/>
<path d="M56.3824 44.8744C56.2006 44.8744 56.0459 44.8107 55.9186 44.6834C55.7913 44.5561 55.7277 44.4015 55.7277 44.2196V26.4586C55.7277 26.2586 55.7913 26.0949 55.9186 25.9675C56.0459 25.8402 56.2006 25.7766 56.3824 25.7766H63.6942C65.1129 25.7766 66.3497 26.0039 67.4046 26.4586C68.4595 26.8952 69.278 27.5681 69.86 28.4775C70.4421 29.3688 70.7331 30.4874 70.7331 31.8333C70.7331 33.1974 70.4421 34.3251 69.86 35.2163C69.278 36.0894 68.4595 36.7442 67.4046 37.1807C66.3497 37.6172 65.1129 37.8355 63.6942 37.8355H59.6291V44.2196C59.6291 44.4015 59.5654 44.5561 59.4381 44.6834C59.329 44.8107 59.1744 44.8744 58.9743 44.8744H56.3824ZM59.5745 34.8071H63.5578C64.6127 34.8071 65.4221 34.5616 65.9859 34.0705C66.5497 33.5612 66.8317 32.8155 66.8317 31.8333C66.8317 30.9239 66.5679 30.1964 66.0405 29.6507C65.513 29.0869 64.6854 28.8049 63.5578 28.8049H59.5745V34.8071ZM72.1567 44.8744C71.9748 44.8744 71.8202 44.8107 71.6929 44.6834C71.5656 44.5561 71.5019 44.4015 71.5019 44.2196V26.1585C71.5019 25.9766 71.5656 25.822 71.6929 25.6947C71.8202 25.5674 71.9748 25.5037 72.1567 25.5037H74.4211C74.603 25.5037 74.7576 25.5674 74.8849 25.6947C75.0123 25.822 75.0759 25.9766 75.0759 26.1585V44.2196C75.0759 44.4015 75.0123 44.5561 74.8849 44.6834C74.7576 44.8107 74.603 44.8744 74.4211 44.8744H72.1567ZM80.9048 45.1472C79.959 45.1472 79.1042 44.9653 78.3402 44.6016C77.5763 44.2196 76.967 43.7194 76.5123 43.101C76.0758 42.4644 75.8575 41.7551 75.8575 40.973C75.8575 39.6998 76.3668 38.6903 77.3853 37.9446C78.4221 37.1807 79.7862 36.6714 81.4777 36.4168L85.2155 35.8711V35.2982C85.2155 34.5343 85.0245 33.9432 84.6425 33.5248C84.2606 33.1065 83.6058 32.8973 82.6782 32.8973C82.0234 32.8973 81.4868 33.0337 81.0685 33.3066C80.6684 33.5612 80.3682 33.9068 80.1682 34.3433C80.0227 34.5798 79.8135 34.698 79.5407 34.698H77.3853C77.1853 34.698 77.0307 34.6434 76.9215 34.5343C76.8306 34.4252 76.7851 34.2796 76.7851 34.0978C76.8033 33.8067 76.9215 33.4521 77.1398 33.0337C77.3581 32.6154 77.7036 32.2153 78.1765 31.8333C78.6494 31.4332 79.2588 31.0967 80.0045 30.8239C80.7502 30.551 81.6505 30.4146 82.7055 30.4146C83.8513 30.4146 84.8153 30.5601 85.5974 30.8511C86.3977 31.124 87.0343 31.4968 87.5072 31.9697C87.9801 32.4426 88.3257 32.9974 88.5439 33.634C88.7622 34.2706 88.8713 34.9435 88.8713 35.6529V44.2196C88.8713 44.4015 88.8077 44.5561 88.6803 44.6834C88.553 44.8107 88.3984 44.8744 88.2165 44.8744H86.0066C85.8066 44.8744 85.6429 44.8107 85.5156 44.6834C85.4064 44.5561 85.3519 44.4015 85.3519 44.2196V43.1556C85.1154 43.5012 84.7971 43.8286 84.397 44.1378C83.9968 44.4288 83.5057 44.6743 82.9237 44.8744C82.3599 45.0563 81.6869 45.1472 80.9048 45.1472ZM81.8324 42.5554C82.469 42.5554 83.0419 42.419 83.5512 42.1461C84.0787 41.8733 84.4879 41.455 84.7789 40.8911C85.0881 40.3091 85.2427 39.5816 85.2427 38.7085V38.1356L82.5145 38.5721C81.4414 38.7358 80.6411 38.9995 80.1136 39.3633C79.5861 39.7271 79.3224 40.1727 79.3224 40.7002C79.3224 41.1003 79.4406 41.4459 79.6771 41.7369C79.9317 42.0097 80.25 42.2189 80.632 42.3644C81.0139 42.4917 81.4141 42.5554 81.8324 42.5554ZM92.6532 50.0581C92.5076 50.0581 92.3803 50.0035 92.2712 49.8944C92.1621 49.7853 92.1075 49.6579 92.1075 49.5124C92.1075 49.4397 92.1075 49.3669 92.1075 49.2942C92.1257 49.2396 92.1621 49.1669 92.2166 49.0759L94.3447 44.0286L89.1064 31.6696C89.0337 31.4877 88.9973 31.3604 88.9973 31.2877C89.0155 31.124 89.0791 30.9875 89.1883 30.8784C89.2974 30.7511 89.4338 30.6874 89.5975 30.6874H91.8074C92.0257 30.6874 92.1894 30.742 92.2985 30.8511C92.4076 30.9603 92.4895 31.0785 92.544 31.2058L96.1726 40.1272L99.9103 31.2058C99.9649 31.0603 100.047 30.9421 100.156 30.8511C100.265 30.742 100.429 30.6874 100.647 30.6874H102.83C102.975 30.6874 103.102 30.742 103.212 30.8511C103.339 30.9603 103.403 31.0876 103.403 31.2331C103.403 31.3422 103.366 31.4877 103.293 31.6696L95.5724 49.5397C95.4996 49.6852 95.4087 49.8034 95.2996 49.8944C95.1904 50.0035 95.0267 50.0581 94.8085 50.0581H92.6532ZM114.407 45.1472C112.716 45.1472 111.297 44.9017 110.151 44.4106C109.024 43.9013 108.16 43.2465 107.559 42.4462C106.977 41.6278 106.668 40.7729 106.632 39.8817C106.632 39.718 106.686 39.5816 106.796 39.4724C106.905 39.3633 107.041 39.3087 107.205 39.3087H109.633C109.869 39.3087 110.042 39.3633 110.151 39.4724C110.279 39.5634 110.388 39.6816 110.479 39.8271C110.588 40.1727 110.797 40.5183 111.106 40.8638C111.415 41.1912 111.834 41.4641 112.361 41.6823C112.907 41.9006 113.589 42.0097 114.407 42.0097C115.717 42.0097 116.69 41.7915 117.327 41.3549C117.981 40.9184 118.309 40.3273 118.309 39.5816C118.309 39.0541 118.136 38.6358 117.79 38.3266C117.445 37.9992 116.908 37.7082 116.181 37.4535C115.471 37.1807 114.526 36.8988 113.343 36.6078C111.979 36.2804 110.833 35.8893 109.906 35.4346C108.996 34.9617 108.305 34.3706 107.832 33.6612C107.378 32.9519 107.15 32.0516 107.15 30.9603C107.15 29.9053 107.432 28.9686 107.996 28.1502C108.578 27.3317 109.397 26.686 110.451 26.2131C111.525 25.7402 112.798 25.5037 114.271 25.5037C115.453 25.5037 116.499 25.6674 117.408 25.9948C118.318 26.304 119.073 26.7224 119.673 27.2498C120.273 27.7591 120.728 28.3139 121.037 28.9141C121.364 29.4961 121.537 30.069 121.555 30.6329C121.555 30.7784 121.501 30.9148 121.392 31.0421C121.301 31.1512 121.164 31.2058 120.983 31.2058H118.445C118.3 31.2058 118.154 31.1694 118.009 31.0967C117.863 31.0239 117.745 30.8875 117.654 30.6874C117.545 30.1236 117.19 29.6416 116.59 29.2415C115.99 28.8413 115.217 28.6412 114.271 28.6412C113.289 28.6412 112.498 28.8231 111.897 29.1869C111.297 29.5507 110.997 30.1145 110.997 30.8784C110.997 31.3877 111.143 31.8151 111.434 32.1607C111.743 32.4881 112.225 32.7791 112.88 33.0337C113.553 33.2884 114.435 33.5612 115.526 33.8522C117.072 34.1978 118.336 34.5979 119.318 35.0527C120.3 35.5074 121.019 36.0894 121.474 36.7987C121.928 37.4899 122.156 38.372 122.156 39.4452C122.156 40.6456 121.828 41.6732 121.173 42.5281C120.537 43.3648 119.637 44.0104 118.473 44.4652C117.308 44.9199 115.953 45.1472 114.407 45.1472ZM129.457 44.8744C128.365 44.8744 127.447 44.6834 126.701 44.3015C125.955 43.9195 125.401 43.3557 125.037 42.6099C124.673 41.846 124.491 40.9002 124.491 39.7725V33.5794H122.336C122.154 33.5794 121.999 33.5157 121.872 33.3884C121.745 33.2611 121.681 33.1065 121.681 32.9246V31.3422C121.681 31.1603 121.745 31.0057 121.872 30.8784C121.999 30.7511 122.154 30.6874 122.336 30.6874H124.491V26.1585C124.491 25.9766 124.546 25.822 124.655 25.6947C124.782 25.5674 124.946 25.5037 125.146 25.5037H127.356C127.538 25.5037 127.692 25.5674 127.82 25.6947C127.947 25.822 128.011 25.9766 128.011 26.1585V30.6874H131.421C131.603 30.6874 131.757 30.7511 131.885 30.8784C132.012 31.0057 132.076 31.1603 132.076 31.3422V32.9246C132.076 33.1065 132.012 33.2611 131.885 33.3884C131.757 33.5157 131.603 33.5794 131.421 33.5794H128.011V39.4997C128.011 40.2454 128.138 40.8275 128.393 41.2458C128.665 41.6641 129.129 41.8733 129.784 41.8733H131.666C131.848 41.8733 132.003 41.937 132.13 42.0643C132.258 42.1916 132.321 42.3462 132.321 42.5281V44.2196C132.321 44.4015 132.258 44.5561 132.13 44.6834C132.003 44.8107 131.848 44.8744 131.666 44.8744H129.457ZM139.107 45.1472C137.652 45.1472 136.424 44.8926 135.424 44.3833C134.441 43.874 133.687 43.1556 133.159 42.228C132.65 41.3004 132.359 40.2182 132.286 38.9813C132.268 38.654 132.259 38.2538 132.259 37.7809C132.259 37.308 132.268 36.9079 132.286 36.5805C132.359 35.3255 132.659 34.2433 133.186 33.3339C133.732 32.4062 134.496 31.6878 135.478 31.1785C136.478 30.6692 137.688 30.4146 139.107 30.4146C140.525 30.4146 141.726 30.6692 142.708 31.1785C143.708 31.6878 144.472 32.4062 145 33.3339C145.545 34.2433 145.855 35.3255 145.927 36.5805C145.946 36.9079 145.955 37.308 145.955 37.7809C145.955 38.2538 145.946 38.654 145.927 38.9813C145.855 40.2182 145.554 41.3004 145.027 42.228C144.518 43.1556 143.763 43.874 142.763 44.3833C141.78 44.8926 140.562 45.1472 139.107 45.1472ZM139.107 42.4462C140.071 42.4462 140.816 42.1461 141.344 41.5459C141.871 40.9275 142.162 40.0272 142.217 38.8449C142.235 38.5721 142.244 38.2174 142.244 37.7809C142.244 37.3444 142.235 36.9897 142.217 36.7169C142.162 35.5528 141.871 34.6616 141.344 34.0432C140.816 33.4248 140.071 33.1156 139.107 33.1156C138.143 33.1156 137.397 33.4248 136.87 34.0432C136.342 34.6616 136.051 35.5528 135.996 36.7169C135.978 36.9897 135.969 37.3444 135.969 37.7809C135.969 38.2174 135.978 38.5721 135.996 38.8449C136.051 40.0272 136.342 40.9275 136.87 41.5459C137.397 42.1461 138.143 42.4462 139.107 42.4462ZM147.722 44.8744C147.541 44.8744 147.386 44.8107 147.259 44.6834C147.131 44.5561 147.068 44.4015 147.068 44.2196V31.3695C147.068 31.1694 147.131 31.0057 147.259 30.8784C147.386 30.7511 147.541 30.6874 147.722 30.6874H149.932C150.114 30.6874 150.269 30.7511 150.396 30.8784C150.542 31.0057 150.614 31.1694 150.614 31.3695V32.4881C151.033 31.9061 151.569 31.4604 152.224 31.1512C152.897 30.842 153.67 30.6874 154.543 30.6874H155.662C155.862 30.6874 156.016 30.7511 156.125 30.8784C156.253 31.0057 156.316 31.1603 156.316 31.3422V33.3066C156.316 33.4885 156.253 33.6431 156.125 33.7704C156.016 33.8977 155.862 33.9614 155.662 33.9614H153.534C152.661 33.9614 151.979 34.2069 151.487 34.698C151.015 35.1891 150.778 35.862 150.778 36.7169V44.2196C150.778 44.4015 150.714 44.5561 150.587 44.6834C150.46 44.8107 150.296 44.8744 150.096 44.8744H147.722ZM162.459 45.1472C160.44 45.1472 158.84 44.5652 157.658 43.4011C156.475 42.2371 155.839 40.5819 155.748 38.4357C155.73 38.2538 155.721 38.0265 155.721 37.7536C155.721 37.4626 155.73 37.2353 155.748 37.0716C155.821 35.7074 156.13 34.5252 156.675 33.5248C157.239 32.5245 158.012 31.7606 158.994 31.2331C159.977 30.6874 161.132 30.4146 162.459 30.4146C163.933 30.4146 165.169 30.7238 166.17 31.3422C167.17 31.9424 167.925 32.7882 168.434 33.8795C168.943 34.9526 169.198 36.1985 169.198 37.6172V38.1902C169.198 38.372 169.134 38.5266 169.007 38.654C168.88 38.7813 168.716 38.8449 168.516 38.8449H159.458C159.458 38.8449 159.458 38.8722 159.458 38.9268C159.458 38.9813 159.458 39.0268 159.458 39.0632C159.476 39.6998 159.595 40.2909 159.813 40.8366C160.049 41.364 160.386 41.7915 160.822 42.1188C161.277 42.4462 161.814 42.6099 162.432 42.6099C162.941 42.6099 163.369 42.5372 163.714 42.3917C164.06 42.228 164.342 42.0461 164.56 41.846C164.778 41.6459 164.933 41.4823 165.024 41.3549C165.188 41.1367 165.315 41.0094 165.406 40.973C165.515 40.9184 165.67 40.8911 165.87 40.8911H168.216C168.398 40.8911 168.543 40.9457 168.652 41.0548C168.78 41.164 168.834 41.3004 168.816 41.4641C168.798 41.7551 168.643 42.1098 168.352 42.5281C168.08 42.9464 167.679 43.3557 167.152 43.7558C166.624 44.1559 165.961 44.4924 165.16 44.7653C164.378 45.0199 163.478 45.1472 162.459 45.1472ZM159.458 36.5532H165.488V36.4713C165.488 35.762 165.369 35.1436 165.133 34.6161C164.897 34.0887 164.551 33.6703 164.096 33.3611C163.642 33.0519 163.096 32.8973 162.459 32.8973C161.823 32.8973 161.277 33.0519 160.822 33.3611C160.368 33.6703 160.022 34.0887 159.786 34.6161C159.567 35.1436 159.458 35.762 159.458 36.4713V36.5532Z" fill="white"/>
</svg>
