<svg width="39" height="39" viewBox="0 0 39 39" fill="none" xmlns="http://www.w3.org/2000/svg">
<g clip-path="url(#clip0_41_171)">
<path d="M22.4911 8.77448L26.8489 5.61111C27.0064 5.4911 26.8991 5.29326 26.7564 5.29525L21.3902 5.29859C21.2328 5.29083 21.1021 5.16941 21.0793 5.09941L19.405 -0.0493131C19.3533 -0.209325 19.135 -0.189324 19.0851 -0.0348787L17.4331 5.04934C17.367 5.24624 17.2106 5.2945 17.1025 5.29617L11.7399 5.29555C11.5752 5.29555 11.5092 5.50577 11.6425 5.60255L15.9766 8.75325C16.0785 8.82576 16.1483 8.99471 16.1052 9.13766L14.4477 14.241C14.397 14.3976 14.5769 14.5213 14.7102 14.4247L19.0416 11.2797C19.1672 11.1867 19.3407 11.2014 19.4354 11.2673L23.7994 14.438C23.9172 14.5188 24.0995 14.4009 24.0489 14.2444L22.3869 9.12888C22.347 9.00413 22.4013 8.84135 22.4911 8.77448Z" fill="#D7BD8A"/>
<path d="M22.4916 8.77445L26.8494 5.61108C27.0069 5.49107 26.8996 5.29323 26.7569 5.29522L21.3907 5.29856C21.2333 5.29079 21.1026 5.16938 21.0798 5.09938L19.4055 -0.0493436C19.3538 -0.209356 19.1355 -0.189354 19.0856 -0.0349092L17.4336 5.04931C17.3675 5.24621 17.2111 5.29447 17.103 5.29614L11.7404 5.29552C11.5757 5.29552 11.5097 5.50574 11.643 5.60252L15.9771 8.75322C16.079 8.82573 16.1487 8.99468 16.1056 9.13763L14.4482 14.241C14.3974 14.3976 14.5774 14.5212 14.7107 14.4247L19.0421 11.2796C19.1677 11.1867 19.3412 11.2013 19.4358 11.2672L23.7999 14.438C23.9177 14.5188 24.1 14.4009 24.0494 14.2443L22.3874 9.12885C22.3475 9.0041 22.4018 8.84132 22.4916 8.77445ZM19.2472 10.0847L19.2494 7.90412L16.1067 12.23C16.0174 12.3542 15.842 12.2546 15.883 12.1223L16.9478 8.83344C17.0027 8.66775 17.0927 8.60533 17.192 8.57307L19.2492 7.90412L14.1592 6.24932C14.0202 6.20862 14.0412 5.99531 14.204 5.99718L17.6545 5.99782C17.8464 5.99699 17.913 6.07529 17.9665 6.1449L19.2513 7.90513L19.2491 2.55526C19.2499 2.40497 19.4538 2.37794 19.4981 2.51841L20.5648 5.80943C20.605 5.93295 20.5895 6.05849 20.5278 6.14341L19.2498 7.90359L24.3428 6.24909C24.48 6.20089 24.5722 6.38695 24.4616 6.46703L21.6645 8.50109C21.5039 8.61339 21.3988 8.60252 21.2889 8.56871L19.2494 7.90412L22.4017 12.2421C22.4795 12.3516 22.3431 12.5011 22.2212 12.4129L19.4237 10.3832C19.328 10.3148 19.2473 10.23 19.2472 10.0847Z" fill="#501214"/>
<path d="M36.2353 22.4111C36.2353 23.8699 35.2101 24.5206 33.4751 24.5206C32.3217 24.5206 31.4247 24.2742 30.9712 23.9095L30.9909 22.2632H32.0654V23.1207C32.3513 23.249 32.7752 23.3475 33.4751 23.3475C34.4215 23.3475 34.8947 23.0615 34.8947 22.4703C34.8947 20.9029 30.9909 22.204 30.9909 19.3453C30.9909 18.0539 31.7598 17.3047 33.7019 17.3047C34.727 17.3047 35.5354 17.5118 35.9888 17.8765L35.9692 19.4831H34.8947V18.6059C34.6285 18.4973 34.2539 18.4186 33.7314 18.4186C32.7752 18.4186 32.3217 18.7242 32.3217 19.3255C32.3217 20.9029 36.2353 19.5917 36.2353 22.4111Z" fill="#501214"/>
<path d="M14.838 22.563L14.8479 24.4064H9.53439L9.51465 23.3714C9.78078 23.3614 9.99767 23.3418 10.2047 23.3123V18.5012C9.99767 18.4717 9.78078 18.4522 9.51465 18.4421L9.53439 17.4071H14.8479L14.838 19.2407H13.7832V18.5705H11.5553V20.3745H14.2071V21.439H11.5553V23.243H13.7832V22.563L14.838 22.563Z" fill="#501214"/>
<path d="M29.6947 23.3024L27.3787 17.4075H24.6572L24.6513 18.4462C24.6513 18.4462 25.0029 18.4533 25.5197 18.5214L23.6915 23.3024C23.4746 23.3417 23.2775 23.3615 23.0015 23.3714L23.0212 24.4063H25.6729L25.6926 23.3714C25.4363 23.3615 25.2589 23.3417 25.0617 23.3121L25.3377 22.5433H28.0387L28.3245 23.3121C28.1274 23.3417 27.9401 23.3615 27.6838 23.3714L27.7035 24.4063H30.3552L30.3749 23.3714C30.1087 23.3615 29.9116 23.3417 29.6947 23.3024ZM25.7123 21.4886L26.6685 18.8271L27.6542 21.4886H25.7123Z" fill="#501214"/>
<path d="M21.7089 23.2245L19.9152 20.8293L21.7483 18.4939C21.9356 18.4643 22.1327 18.4543 22.3594 18.4442L22.3397 17.4087H19.6982L19.6784 18.4442C19.9149 18.4543 20.0726 18.4643 20.25 18.4939L19.1957 19.9125L17.845 17.9508C17.5986 17.606 17.3128 17.3694 16.8101 17.3694C16.4553 17.3694 16.0906 17.4285 15.8638 17.4877V18.5819H16.6721L18.2985 20.8498L16.4159 23.3139C16.2089 23.3435 16.0019 23.363 15.7456 23.3731L15.7653 24.4076H18.4069L18.4265 23.3731C18.1999 23.363 18.0422 23.353 17.8648 23.3234L19.0573 21.6873L20.3782 23.5788C20.871 24.2691 21.0385 24.4862 21.6793 24.4862C22.0243 24.4862 22.2805 24.4465 22.3988 24.427L22.4185 23.3032C22.1327 23.3032 21.8567 23.2736 21.7089 23.2245Z" fill="#501214"/>
<path d="M8.41968 19.4393H7.37485V18.6015H6.02732V23.3133C6.22443 23.3429 6.50046 23.3626 6.74694 23.3725L6.72721 24.4075H3.98676L3.96713 23.3725C4.21351 23.3626 4.48954 23.3429 4.67683 23.3133V18.6015H3.33911V19.4393H2.28438L2.26465 17.4087H8.43941L8.41968 19.4393Z" fill="#501214"/>
<path d="M7.52047 31.3442C7.52047 32.803 6.49529 33.4537 4.7603 33.4537C3.60689 33.4537 2.70986 33.2074 2.25635 32.8427L2.27609 31.1963H3.3506V32.0538C3.63647 32.1822 4.0604 32.2807 4.7603 32.2807C5.70666 32.2807 6.17983 31.9946 6.17983 31.4034C6.17983 29.836 2.27609 31.1372 2.27609 28.2785C2.27609 26.9871 3.04498 26.2379 4.98701 26.2379C6.0122 26.2379 6.82057 26.4449 7.274 26.8096L7.25434 28.4163H6.17983V27.539C5.91363 27.4304 5.53902 27.3518 5.01659 27.3518C4.0604 27.3518 3.60689 27.6573 3.60689 28.2586C3.60689 29.836 7.52047 28.5248 7.52047 31.3442Z" fill="#501214"/>
<path d="M35.9386 31.4961L35.9485 33.3395H30.635L30.6152 32.3045C30.8814 32.2945 31.0983 32.275 31.3053 32.2454V27.4344C31.0983 27.4048 30.8814 27.3853 30.6152 27.3752L30.635 26.3402H35.9485L35.9386 28.1738H34.8838V27.5036H32.6559V29.3076H35.3077V30.3721H32.6559V32.1761H34.8838V31.4961L35.9386 31.4961Z" fill="#501214"/>
<path d="M21.8505 32.2356L19.5345 26.3407H16.813L16.807 27.3794C16.807 27.3794 17.1587 27.3865 17.6755 27.4546L15.8472 32.2356C15.6304 32.2749 15.4333 32.2947 15.1572 32.3046L15.177 33.3395H17.8286L17.8484 32.3046C17.5921 32.2947 17.4146 32.2749 17.2175 32.2453L17.4935 31.4765H20.1944L20.4803 32.2453C20.2831 32.2749 20.0958 32.2947 19.8395 32.3046L19.8593 33.3395H22.5109L22.5306 32.3046C22.2645 32.2947 22.0673 32.2749 21.8505 32.2356ZM17.868 30.4218L18.8242 27.7603L19.81 30.4218H17.868Z" fill="#501214"/>
<path d="M14.7209 28.3713H13.6761V27.5335H12.3286V32.2453C12.5257 32.2749 12.8017 32.2946 13.0482 32.3045L13.0285 33.3395H10.288L10.2684 32.3045C10.5148 32.2946 10.7908 32.2749 10.9781 32.2453V27.5335H9.64038V28.3713H8.58565L8.56592 26.3407H14.7407L14.7209 28.3713Z" fill="#501214"/>
<path d="M29.0056 28.3713H27.9608V27.5335H26.6133V32.2453C26.8104 32.2749 27.0864 32.2946 27.3329 32.3045L27.3131 33.3395H24.5727L24.5531 32.3045C24.7994 32.2946 25.0755 32.2749 25.2628 32.2453V27.5335H23.9251V28.3713H22.8703L22.8506 26.3407H29.0253L29.0056 28.3713Z" fill="#501214"/>
<path d="M24.5512 38.0052C24.7203 38.0812 24.9663 38.1262 25.2663 38.1262C25.7441 38.1262 25.9864 37.9724 25.9864 37.6692C25.9864 37.3203 25.6164 37.243 25.2246 37.1611C24.6934 37.0502 24.0914 36.9244 24.0914 36.1523C24.0914 35.4977 24.4997 35.1928 25.3763 35.1928C25.854 35.1928 26.2254 35.2775 26.4726 35.4633L26.4615 36.2301H25.9864L25.9859 35.7724C25.8279 35.7049 25.6215 35.6714 25.3907 35.6714C24.916 35.6714 24.6753 35.83 24.6753 36.1427C24.6753 36.4957 25.0497 36.572 25.446 36.6528C25.9753 36.7607 26.5751 36.8829 26.5751 37.6405C26.5751 38.2994 26.1347 38.6335 25.2663 38.6335C24.752 38.6335 24.3112 38.5288 24.082 38.3529L24.0911 37.5536H24.5509" fill="#501214"/>
<path d="M34.6986 37.2887L35.6874 35.7137C35.6874 35.7137 35.8909 35.6871 35.9746 35.6821L35.9661 35.2406H34.7197L34.7112 35.6821C34.8502 35.687 35.0413 35.7121 35.0524 35.7134L34.4239 36.7562L33.6918 35.4302C33.612 35.2806 33.48 35.2168 33.2503 35.2168C33.1096 35.2168 32.9167 35.2442 32.8286 35.2621V35.7433H33.1969L34.104 37.2833L34.1041 38.0976C34.1041 38.0976 33.8877 38.1265 33.7413 38.1323L33.7496 38.5756H35.0535L35.0619 38.1323C34.9199 38.1265 34.6975 38.0976 34.6975 38.0976L34.6986 37.2887Z" fill="#501214"/>
<path d="M16.1697 35.6821L16.1612 35.2405H14.9147L14.9062 35.6821C15.0452 35.687 15.1962 35.712 15.2073 35.7134L14.4182 37.7967L13.5654 35.4302C13.4856 35.2806 13.3536 35.2168 13.1239 35.2168C12.9832 35.2168 12.7903 35.2441 12.7021 35.2621V35.7432H13.0137L14.0844 38.5758H14.7357L15.8423 35.7136C15.8423 35.7136 16.086 35.6871 16.1697 35.6821Z" fill="#501214"/>
<path d="M29.7355 36.2103V35.7574L30.447 35.7576V38.0978C30.447 38.0978 30.2306 38.1266 30.0842 38.1325L30.0925 38.5758H31.3965L31.4049 38.1325C31.2628 38.1266 31.0404 38.0978 31.0404 38.0978V35.7574L31.7567 35.7576V36.2103H32.202L32.211 35.2405H29.2764L29.2853 36.2103H29.7355Z" fill="#501214"/>
<path d="M21.8845 35.2405C22.6909 35.2406 23.1536 35.6276 23.1536 36.3028C23.1532 36.8525 22.8591 37.1511 22.46 37.286L22.8844 37.9356C22.9826 38.0805 23.069 38.101 23.3503 38.1024L23.3117 38.5956C23.2281 38.6105 23.1299 38.6193 23.0441 38.6193C22.7383 38.6193 22.6003 38.543 22.4291 38.2797L21.8567 37.3692H21.2484V38.0979C21.3138 38.1059 21.4984 38.1277 21.6024 38.1324L21.5941 38.5758H20.3092L20.3008 38.1324C20.4048 38.1277 20.5894 38.1059 20.6549 38.0979V35.7142C20.5578 35.7039 20.3801 35.6859 20.3008 35.6823L20.3092 35.2405L21.8845 35.2405ZM21.888 35.7605H21.2476V36.8584H21.888C22.3365 36.8584 22.5545 36.6788 22.5545 36.3094C22.5545 35.9401 22.3365 35.7605 21.888 35.7605Z" fill="#501214"/>
<path d="M17.8046 35.7426H18.9471V36.1141H19.4066L19.411 35.2405H16.862L16.8535 35.6823C16.9328 35.6859 17.1106 35.7039 17.2076 35.7142V38.0979C17.1422 38.1059 16.9576 38.1277 16.8535 38.1324L16.8619 38.5758H19.411L19.4066 37.7008H18.9471V38.0729L17.8011 38.0727V37.135H19.0782V36.6804L17.8011 36.6803L17.8046 35.7426Z" fill="#501214"/>
<path d="M5.70902 35.2405H4.42426L4.4158 35.6823C4.49509 35.6859 4.67283 35.7039 4.76988 35.7142L4.76979 37.2387C4.76979 37.8245 4.50338 38.1215 3.97791 38.1215C3.45792 38.1215 3.20516 37.8281 3.20516 37.2243L3.20638 35.7142C3.30344 35.7039 3.48118 35.6859 3.56046 35.6823L3.55201 35.2405H2.26724L2.25879 35.6823C2.33807 35.6859 2.51582 35.7039 2.61287 35.7142L2.6118 37.2674C2.6118 38.1739 3.07144 38.6335 3.97791 38.6335C4.85826 38.6335 5.36315 38.1356 5.36315 37.2674L5.3634 35.7142C5.46045 35.7039 5.63819 35.6859 5.71748 35.6823L5.70902 35.2405Z" fill="#501214"/>
<path d="M9.86653 35.2405H8.58176L8.57331 35.6823C8.65259 35.6859 8.83033 35.7039 8.92738 35.7142V37.6167L8.76251 37.3256L7.27672 35.2405H6.2609L6.25244 35.6823C6.33173 35.6859 6.50947 35.7039 6.60652 35.7142V38.0979C6.54108 38.1059 6.35649 38.1277 6.25247 38.1324L6.26084 38.5758H7.54572L7.55409 38.1324C7.45007 38.1277 7.26548 38.1059 7.20004 38.0979V36.0302L7.3574 36.329L8.97099 38.5758H9.5209V35.7142C9.61795 35.7039 9.79569 35.6859 9.87498 35.6823L9.86653 35.2405Z" fill="#501214"/>
<path d="M10.6554 35.2405L10.647 35.6823C10.7263 35.6859 10.904 35.7039 11.0011 35.7142V38.0979C10.9356 38.1059 10.751 38.1277 10.647 38.1324L10.6554 38.5758H11.9402L11.9486 38.1324C11.8446 38.1277 11.66 38.1059 11.5946 38.0979V35.7142C11.6916 35.7039 11.8694 35.6859 11.9486 35.6823L11.9402 35.2405H10.6554Z" fill="#501214"/>
<path d="M27.3185 35.2405L27.3101 35.6823C27.3893 35.6859 27.5671 35.7039 27.6641 35.7142V38.0979C27.5987 38.1059 27.4141 38.1277 27.3101 38.1324L27.3185 38.5758H28.6033L28.6117 38.1324C28.5077 38.1277 28.3231 38.1059 28.2577 38.0979V35.7142C28.3547 35.7039 28.5325 35.6859 28.6117 35.6823L28.6033 35.2405H27.3185Z" fill="#501214"/>
<path d="M36.1792 38.2884V37.5251H36.4721C36.5585 37.5251 36.6215 37.5432 36.6612 37.5792C36.7008 37.6153 36.7207 37.6678 36.7207 37.7364C36.7207 37.7695 36.7156 37.7984 36.7056 37.8234C36.6955 37.8482 36.6815 37.8692 36.6639 37.8863C36.6461 37.9036 36.6256 37.9172 36.6026 37.9272C36.5795 37.9373 36.555 37.9447 36.5289 37.9494L36.7562 38.2884H36.6461L36.4312 37.9494H36.2733V38.2884L36.1792 38.2884ZM36.4818 37.8668C36.5097 37.8651 36.5343 37.8601 36.5555 37.8518C36.5769 37.8435 36.594 37.8302 36.607 37.8118C36.62 37.7935 36.6266 37.7683 36.6266 37.7364C36.6266 37.7092 36.6215 37.6873 36.6114 37.6707C36.6014 37.6541 36.5878 37.6408 36.5706 37.6307C36.5535 37.6207 36.5343 37.6139 36.5129 37.6103C36.4916 37.6068 36.4692 37.605 36.4454 37.605H36.2733V37.8695H36.3975C36.4259 37.8695 36.454 37.8687 36.4818 37.8668Z" fill="#501214"/>
<path d="M36.9794 37.9055C36.9794 38.2152 36.7283 38.4663 36.4187 38.4663C36.109 38.4663 35.8579 38.2152 35.8579 37.9055C35.8579 37.5959 36.109 37.3448 36.4187 37.3448C36.7283 37.3448 36.9794 37.5959 36.9794 37.9055ZM36.4187 37.2447C36.0537 37.2447 35.7578 37.5406 35.7578 37.9055C35.7578 38.2705 36.0537 38.5664 36.4187 38.5664C36.7836 38.5664 37.0795 38.2705 37.0795 37.9055C37.0795 37.5406 36.7836 37.2447 36.4187 37.2447Z" fill="#501214"/>
</g>
<defs>
<clipPath id="clip0_41_171">
<rect width="38.7939" height="38.7939" fill="white"/>
</clipPath>
</defs>
</svg>
